<svg xmlns="http://www.w3.org/2000/svg" width="1024" height="1024" viewBox="0 0 1024 1024">
<g>
<path d="M 520.50 829.84 L 515.50 832.50 L 359.00 832.71 C348.20,832.72 338.12,832.74 328.71,832.75 C206.74,832.94 198.13,832.95 192.20,828.97 C191.30,828.36 190.45,827.66 189.27,826.84 C179.30,819.98 174.44,809.31 175.21,795.97 C175.97,782.79 183.41,771.86 195.38,766.33 L 201.50 763.50 L 356.00 763.21 L 356.57 763.21 C505.88,762.93 514.21,762.92 521.06,766.10 C521.47,766.29 521.88,766.50 522.31,766.71 C526.35,768.73 532.90,774.88 535.66,779.25 C539.46,785.28 541.30,795.05 540.10,802.80 C538.17,815.16 531.95,823.74 520.50,829.84 ZM 199.55 830.09 C199.91,830.66 260.72,830.92 356.81,830.76 L 513.50 830.50 L 519.42 827.64 C529.05,822.99 533.97,816.80 537.40,804.97 C538.80,800.19 538.83,798.62 537.65,792.50 C535.85,783.10 533.18,778.25 526.80,772.80 C525.37,771.58 524.45,770.55 523.39,769.68 C517.65,764.96 508.02,764.96 392.51,764.99 C381.78,765.00 370.14,765.00 357.51,765.00 C245.49,765.00 202.33,765.31 200.30,766.12 C193.95,768.68 192.31,769.54 188.28,772.45 C185.96,774.13 184.05,775.91 184.03,776.42 C184.01,776.93 183.36,778.05 182.58,778.92 C179.47,782.39 177.00,791.38 177.00,799.26 C177.00,803.53 177.39,807.81 177.87,808.76 C178.35,809.72 179.59,812.37 180.62,814.65 C182.79,819.44 191.91,827.60 196.12,828.53 C197.69,828.87 199.24,829.57 199.55,830.09 ZM 626.27 594.86 C624.50,600.21 622.41,603.15 623.68,598.50 C624.13,596.85 624.48,591.67 624.46,587.00 C624.43,579.80 624.01,577.63 621.66,572.80 C618.20,565.66 610.71,558.78 603.41,556.05 C597.95,554.01 597.12,554.00 405.21,553.97 C299.22,553.95 209.47,553.54 205.77,553.07 C197.16,551.96 190.74,548.82 184.69,542.78 C177.36,535.45 175.50,530.55 175.50,518.50 C175.50,509.81 175.83,507.86 178.00,503.59 C181.72,496.28 188.33,489.48 194.80,486.30 L 200.50 483.50 L 537.50 482.50 L 543.00 479.79 C555.96,473.39 562.13,464.12 562.80,450.00 C563.16,442.60 562.89,440.79 560.76,436.00 C557.37,428.42 550.13,420.70 543.20,417.30 L 537.50 414.50 L 370.50 414.00 C209.87,413.52 203.31,413.43 198.50,411.61 C191.57,408.99 184.99,403.80 181.14,397.92 C168.46,378.54 176.06,352.41 197.00,343.43 C201.30,341.59 205.39,341.48 288.00,341.00 C336.57,340.72 375.38,340.10 376.50,339.59 C377.60,339.09 378.23,338.98 377.90,339.36 C377.57,339.73 374.74,340.70 371.60,341.52 C366.79,342.77 353.21,343.00 284.08,343.00 L 202.25 343.00 L 196.87 345.54 C186.44,350.46 181.96,355.21 178.52,364.96 C176.74,369.98 176.54,380.76 178.09,387.97 C179.43,394.25 186.37,402.78 194.09,407.65 L 199.41 411.00 L 367.70 411.00 C479.23,411.00 536.00,411.34 536.00,412.00 C536.00,412.55 536.79,413.00 537.75,413.01 C538.71,413.01 541.75,414.35 544.50,415.97 C567.80,429.70 571.71,456.68 553.06,475.03 C549.81,478.22 541.30,482.64 536.17,483.80 C532.15,484.71 490.66,485.00 366.05,485.00 C201.51,485.00 201.25,485.00 196.57,487.07 C189.28,490.30 180.38,499.75 178.80,505.93 C178.30,507.89 177.43,511.30 176.87,513.50 C175.72,517.99 176.02,520.84 178.53,529.47 C179.97,534.42 181.35,536.51 186.58,541.69 C190.05,545.12 194.15,548.24 195.69,548.60 C197.24,548.97 198.99,549.66 199.59,550.13 C200.20,550.60 289.75,551.12 398.59,551.29 C568.75,551.55 597.13,551.79 601.00,553.05 C605.76,554.59 613.23,559.36 616.38,562.86 C617.42,564.01 618.73,564.67 619.29,564.32 C619.86,563.97 620.01,564.18 619.62,564.81 C619.24,565.42 619.98,567.63 621.27,569.71 C626.94,578.87 628.67,587.60 626.27,594.86 ZM 727.33 692.43 C721.80,693.85 697.81,694.04 498.83,694.26 C376.55,694.39 259.40,694.28 238.50,694.00 L 200.50 693.50 L 195.00 690.61 C188.11,686.98 182.00,680.85 178.33,673.88 C175.77,669.01 175.50,667.55 175.50,658.50 C175.50,649.62 175.81,647.88 178.25,642.91 C181.82,635.64 188.12,629.31 194.99,626.09 L 200.50 623.50 L 399.00 622.99 C556.99,622.58 598.27,622.21 601.26,621.19 C607.06,619.20 617.16,611.05 619.84,606.19 C621.15,603.82 622.43,602.10 622.70,602.36 C622.96,602.63 622.01,604.83 620.59,607.26 C619.17,609.68 618.34,612.04 618.75,612.50 C619.16,612.95 619.02,613.05 618.44,612.72 C617.86,612.39 615.83,613.45 613.94,615.07 C609.18,619.16 603.49,622.03 597.00,623.60 C592.52,624.68 555.32,624.94 396.33,624.96 C230.61,624.99 200.73,625.21 198.33,626.41 C196.77,627.18 194.28,628.37 192.78,629.06 C191.29,629.74 190.35,630.75 190.69,631.31 C191.03,631.86 190.86,632.03 190.32,631.70 C188.80,630.76 182.54,637.84 179.51,643.90 C177.27,648.40 176.79,650.76 176.66,657.90 C176.53,665.51 176.84,667.17 179.38,672.35 C182.88,679.50 187.78,685.30 189.70,684.56 C190.47,684.27 190.84,684.45 190.52,684.98 C189.47,686.67 197.33,690.68 203.50,691.60 C207.00,692.12 316.76,692.29 466.50,692.00 C711.83,691.52 723.77,691.42 729.50,689.67 C732.80,688.66 736.25,687.68 737.18,687.49 C739.84,686.94 744.03,683.87 743.44,682.90 C743.14,682.42 743.57,682.28 744.40,682.60 C746.65,683.46 751.65,679.71 763.21,668.50 C768.95,662.92 788.00,636.28 788.00,633.82 C788.00,633.21 789.35,630.53 791.00,627.85 C792.65,625.16 794.00,622.22 794.00,621.31 C794.00,620.40 794.59,618.95 795.30,618.08 C796.02,617.21 798.09,611.55 799.92,605.50 C801.75,599.45 804.03,592.47 805.00,590.00 C810.35,576.34 813.91,546.48 813.97,514.86 C814.03,478.33 808.95,444.11 799.22,415.50 C798.10,412.20 796.88,408.15 796.51,406.50 C795.62,402.51 792.94,399.48 791.85,401.23 C791.41,401.93 791.32,400.83 791.65,398.79 C792.08,396.12 791.68,394.00 790.21,391.17 C789.09,389.02 786.95,384.16 785.45,380.38 C783.96,376.60 782.12,372.79 781.37,371.92 C780.62,371.05 780.00,369.78 780.00,369.10 C780.00,367.61 774.90,358.64 773.79,358.17 C773.35,357.98 773.00,357.17 773.00,356.36 C773.00,355.55 772.54,355.17 771.98,355.52 C771.41,355.86 771.05,355.78 771.17,355.32 C771.66,353.52 769.46,349.19 763.67,340.55 C760.34,335.57 757.24,331.35 756.80,331.17 C756.36,330.98 756.00,330.30 756.00,329.65 C756.00,328.66 752.73,324.18 746.94,317.23 C746.36,316.53 745.46,316.21 744.95,316.53 C744.43,316.85 744.31,316.35 744.68,315.39 C745.08,314.34 744.94,313.92 744.32,314.30 C743.76,314.65 742.72,313.84 742.00,312.50 C741.28,311.16 740.32,310.30 739.86,310.59 C739.40,310.87 739.25,310.51 739.53,309.78 C740.06,308.39 727.00,292.81 720.62,287.23 C718.56,285.43 716.39,284.26 715.79,284.63 C715.18,285.01 714.97,284.85 715.33,284.28 C716.23,282.83 712.25,279.00 696.50,266.15 C689.43,260.39 676.77,251.72 674.00,250.76 C672.72,250.31 672.74,250.13 674.15,249.55 C675.26,249.09 678.09,250.44 682.65,253.61 C691.31,259.60 699.69,266.01 703.30,269.38 C704.84,270.82 706.50,272.00 706.98,272.00 C707.47,272.00 709.53,274.02 711.55,276.50 C713.58,278.98 715.76,281.00 716.40,281.00 C717.90,281.00 730.24,293.43 729.48,294.18 C729.17,294.50 730.89,296.50 733.30,298.63 C745.69,309.56 766.42,338.69 779.82,364.00 C798.54,399.37 809.91,436.85 814.55,478.47 C816.66,497.42 816.08,545.41 813.57,559.00 C812.71,563.67 811.78,568.85 811.51,570.50 C808.36,589.33 801.55,611.07 793.61,627.57 C787.49,640.30 776.69,657.24 771.18,662.76 C769.15,664.79 767.61,666.77 767.73,667.17 C767.99,667.97 755.57,679.25 753.73,679.90 C753.10,680.12 751.76,681.08 750.75,682.02 C747.56,684.99 735.57,690.32 727.33,692.43 ZM 674.00 248.16 C674.00,249.58 672.44,249.11 668.64,246.53 C666.64,245.17 665.00,244.33 665.00,244.65 C665.00,244.98 664.33,244.69 663.51,244.01 C662.69,243.33 661.37,243.03 660.56,243.34 C659.63,243.69 659.28,243.42 659.60,242.59 C659.91,241.79 658.63,240.61 656.30,239.55 C647.20,235.42 642.00,232.61 642.00,231.84 C642.00,231.38 641.21,231.00 640.25,230.99 C639.29,230.99 637.15,230.09 635.50,229.00 C633.85,227.91 631.80,227.01 630.95,227.01 C630.09,227.00 627.17,225.93 624.45,224.63 C621.73,223.33 618.15,221.78 616.50,221.18 C614.85,220.58 609.35,218.49 604.27,216.54 C599.20,214.60 594.19,213.00 593.14,213.00 C591.30,213.00 585.46,211.45 576.00,208.44 C569.97,206.52 563.27,205.30 546.00,202.97 C532.11,201.10 524.71,201.01 368.86,201.01 C220.75,201.00 205.78,201.15 201.14,202.64 C198.35,203.55 196.23,204.56 196.43,204.89 C196.64,205.23 195.70,205.50 194.35,205.50 L 191.90 205.50 L 194.03 203.77 C199.35,199.47 196.58,199.55 352.00,199.22 C508.09,198.89 537.53,199.42 558.17,202.95 C569.83,204.95 592.06,210.37 601.50,213.52 C611.38,216.81 632.51,225.34 632.83,226.16 C633.02,226.62 633.77,227.00 634.51,227.00 C635.97,227.00 656.19,236.83 657.00,237.93 C657.28,238.31 659.00,239.22 660.84,239.96 C662.67,240.71 664.70,241.81 665.35,242.41 C666.00,243.01 668.21,244.36 670.27,245.41 C672.32,246.46 674.00,247.69 674.00,248.16 ZM 386.83 334.94 C383.71,337.17 380.58,339.00 379.88,339.00 C379.18,339.00 380.61,337.72 383.05,336.16 C389.70,331.92 395.45,325.07 397.96,318.42 C404.19,301.91 395.98,283.04 379.12,275.14 L 373.50 272.50 L 287.50 272.00 C193.95,271.46 200.03,271.86 190.41,265.48 C184.91,261.83 181.65,258.06 177.89,251.00 C175.83,247.12 175.50,245.13 175.50,236.48 C175.50,227.23 175.75,225.96 178.69,219.98 C181.82,213.64 189.33,205.00 190.61,206.27 C190.96,206.63 189.35,208.63 187.03,210.71 C183.57,213.81 179.70,219.08 180.03,220.24 C180.07,220.38 179.34,222.30 178.40,224.50 C176.37,229.26 175.97,243.37 177.82,245.22 C178.47,245.87 179.00,247.52 179.00,248.90 C179.00,250.27 180.20,253.13 181.67,255.25 C184.72,259.65 193.81,267.24 195.08,266.45 C195.55,266.16 197.86,266.95 200.22,268.21 L 204.50 270.50 L 290.00 271.00 C354.47,271.38 376.02,271.80 377.62,272.71 C378.78,273.38 380.00,273.66 380.33,273.34 C380.65,273.01 383.12,274.59 385.82,276.85 C388.51,279.10 391.04,280.62 391.44,280.22 C391.84,279.83 392.06,279.95 391.92,280.50 C391.57,281.98 393.07,285.00 394.17,285.00 C394.69,285.00 394.84,284.55 394.50,284.00 C394.16,283.45 394.31,283.00 394.83,283.00 C395.36,283.00 396.05,283.70 396.38,284.55 C396.72,285.44 396.56,285.84 395.99,285.49 C394.40,284.51 394.81,285.88 398.00,292.16 C400.62,297.31 401.00,299.11 401.00,306.38 C401.00,310.96 400.48,316.23 399.85,318.10 C397.83,324.08 392.66,330.77 386.83,334.94 Z" fill="rgb(239,102,57)"/>
<path d="M 0.00 0.00 L 1024.00 0.00 L 1024.00 0.50 L 512.50 0.74 C231.18,0.87 1.00,1.21 1.00,1.49 L 1.00 513.00 L 1.00 1024.00 L 0.00 1024.00 Z" fill="rgb(240,199,182)"/>
<path d="M 626.27 594.86 C628.67,587.60 626.94,578.87 621.27,569.71 C619.98,567.63 619.24,565.42 619.62,564.81 C620.01,564.18 619.86,563.97 619.29,564.32 C618.73,564.67 617.42,564.01 616.38,562.86 C613.23,559.36 605.76,554.59 601.00,553.05 C597.13,551.79 568.75,551.55 398.59,551.29 C289.75,551.12 200.20,550.60 199.59,550.13 C198.99,549.66 197.24,548.97 195.69,548.60 C194.15,548.24 190.05,545.12 186.58,541.69 C181.35,536.51 179.97,534.42 178.53,529.47 C176.02,520.84 175.72,517.99 176.87,513.50 C177.43,511.30 178.30,507.89 178.80,505.93 C180.38,499.75 189.28,490.30 196.57,487.07 C201.25,485.00 201.51,485.00 366.05,485.00 C490.66,485.00 532.15,484.71 536.17,483.80 C541.30,482.64 549.81,478.22 553.06,475.03 C571.71,456.68 567.80,429.70 544.50,415.97 C541.75,414.35 538.71,413.01 537.75,413.01 C536.79,413.00 536.00,412.55 536.00,412.00 C536.00,411.34 479.23,411.00 367.70,411.00 L 199.41 411.00 L 194.09 407.65 C186.37,402.78 179.43,394.25 178.09,387.97 C176.54,380.76 176.74,369.98 178.52,364.96 C181.96,355.21 186.44,350.46 196.87,345.54 L 202.25 343.00 L 284.08 343.00 C353.21,343.00 366.79,342.77 371.60,341.52 C374.74,340.70 377.57,339.73 377.90,339.36 C378.23,338.98 377.60,339.09 376.50,339.59 C376.31,339.68 374.99,339.77 372.69,339.86 C378.72,338.59 384.31,335.67 388.83,331.62 C387.03,333.32 385.09,334.87 383.05,336.16 C380.61,337.72 379.18,339.00 379.88,339.00 C380.58,339.00 383.71,337.17 386.83,334.94 C392.66,330.77 397.83,324.08 399.85,318.10 C400.48,316.23 401.00,310.96 401.00,306.38 C401.00,299.11 400.62,297.31 398.00,292.16 C394.81,285.88 394.40,284.51 395.99,285.49 C396.56,285.84 396.72,285.44 396.38,284.55 C396.05,283.70 395.36,283.00 394.83,283.00 C394.31,283.00 394.16,283.45 394.50,284.00 C394.84,284.55 394.69,285.00 394.17,285.00 C393.07,285.00 391.57,281.98 391.92,280.50 C392.06,279.95 391.84,279.83 391.44,280.22 C391.04,280.62 388.51,279.10 385.82,276.85 C383.12,274.59 380.65,273.01 380.33,273.34 C380.00,273.66 378.78,273.38 377.62,272.71 C376.02,271.80 354.47,271.38 290.00,271.00 L 204.50 270.50 L 200.22 268.21 C197.86,266.95 195.55,266.16 195.08,266.45 C193.81,267.24 184.72,259.65 181.67,255.25 C180.20,253.13 179.00,250.27 179.00,248.90 C179.00,247.52 178.47,245.87 177.82,245.22 C175.97,243.37 176.37,229.26 178.40,224.50 C179.34,222.30 180.07,220.38 180.03,220.24 C179.70,219.08 183.57,213.81 187.03,210.71 C189.35,208.63 190.96,206.63 190.61,206.27 C190.43,206.10 190.13,206.11 189.73,206.29 C191.83,204.64 194.02,203.25 196.18,202.24 C195.33,202.68 194.76,203.19 194.03,203.77 L 191.90 205.50 L 194.35 205.50 C195.70,205.50 196.64,205.23 196.43,204.89 C196.23,204.56 198.35,203.55 201.14,202.64 C205.78,201.15 220.75,201.00 368.86,201.01 C524.71,201.01 532.11,201.10 546.00,202.97 C563.27,205.30 569.97,206.52 576.00,208.44 C585.46,211.45 591.30,213.00 593.14,213.00 C594.19,213.00 599.20,214.60 604.27,216.54 C609.35,218.49 614.85,220.58 616.50,221.18 C618.15,221.78 621.73,223.33 624.45,224.63 C627.17,225.93 630.09,227.00 630.95,227.01 C631.80,227.01 633.85,227.91 635.50,229.00 C637.15,230.09 639.29,230.99 640.25,230.99 C641.21,231.00 642.00,231.38 642.00,231.84 C642.00,232.61 647.20,235.42 656.30,239.55 C658.63,240.61 659.91,241.79 659.60,242.59 C659.28,243.42 659.63,243.69 660.56,243.34 C661.37,243.03 662.69,243.33 663.51,244.01 C664.33,244.69 665.00,244.98 665.00,244.65 C665.00,244.33 666.64,245.17 668.64,246.53 C672.44,249.11 674.00,249.58 674.00,248.16 C674.00,248.09 673.97,248.01 673.91,247.92 C675.73,249.08 677.54,250.25 679.33,251.44 C676.69,249.84 674.96,249.21 674.15,249.55 C672.74,250.13 672.72,250.31 674.00,250.76 C676.77,251.72 689.43,260.39 696.50,266.15 C712.25,279.00 716.23,282.83 715.33,284.28 C714.97,284.85 715.18,285.01 715.79,284.63 C716.39,284.26 718.56,285.43 720.62,287.23 C727.00,292.81 740.06,308.39 739.53,309.78 C739.25,310.51 739.40,310.87 739.86,310.59 C740.32,310.30 741.28,311.16 742.00,312.50 C742.72,313.84 743.76,314.65 744.32,314.30 C744.94,313.92 745.08,314.34 744.68,315.39 C744.31,316.35 744.43,316.85 744.95,316.53 C745.46,316.21 746.36,316.53 746.94,317.23 C752.73,324.18 756.00,328.66 756.00,329.65 C756.00,330.30 756.36,330.98 756.80,331.17 C757.24,331.35 760.34,335.57 763.67,340.55 C769.46,349.19 771.66,353.52 771.17,355.32 C771.05,355.78 771.41,355.86 771.98,355.52 C772.54,355.17 773.00,355.55 773.00,356.36 C773.00,357.17 773.35,357.98 773.79,358.17 C774.90,358.64 780.00,367.61 780.00,369.10 C780.00,369.78 780.62,371.05 781.37,371.92 C782.12,372.79 783.96,376.60 785.45,380.38 C786.95,384.16 789.09,389.02 790.21,391.17 C791.68,394.00 792.08,396.12 791.65,398.79 C791.32,400.83 791.41,401.93 791.85,401.23 C792.94,399.48 795.62,402.51 796.51,406.50 C796.88,408.15 798.10,412.20 799.22,415.50 C808.95,444.11 814.03,478.33 813.97,514.86 C813.91,546.48 810.35,576.34 805.00,590.00 C804.03,592.47 801.75,599.45 799.92,605.50 C798.09,611.55 796.02,617.21 795.30,618.08 C794.59,618.95 794.00,620.40 794.00,621.31 C794.00,622.22 792.65,625.16 791.00,627.85 C789.35,630.53 788.00,633.21 788.00,633.82 C788.00,636.28 768.95,662.92 763.21,668.50 C751.65,679.71 746.65,683.46 744.40,682.60 C743.57,682.28 743.14,682.42 743.44,682.90 C744.03,683.87 739.84,686.94 737.18,687.49 C736.25,687.68 732.80,688.66 729.50,689.67 C723.77,691.42 711.83,691.52 466.50,692.00 C316.76,692.29 207.00,692.12 203.50,691.60 C197.33,690.68 189.47,686.67 190.52,684.98 C190.84,684.45 190.47,684.27 189.70,684.56 C187.78,685.30 182.88,679.50 179.38,672.35 C176.84,667.17 176.53,665.51 176.66,657.90 C176.79,650.76 177.27,648.40 179.51,643.90 C182.54,637.84 188.80,630.76 190.32,631.70 C190.86,632.03 191.03,631.86 190.69,631.31 C190.35,630.75 191.29,629.74 192.78,629.06 C194.28,628.37 196.77,627.18 198.33,626.41 C200.73,625.21 230.61,624.99 396.33,624.96 C555.32,624.94 592.52,624.68 597.00,623.60 C603.49,622.03 609.18,619.16 613.94,615.07 C615.83,613.45 617.86,612.39 618.44,612.72 C619.02,613.05 619.16,612.95 618.75,612.50 C618.34,612.04 619.17,609.68 620.59,607.26 C622.01,604.83 622.96,602.63 622.70,602.36 C622.43,602.10 621.15,603.82 619.84,606.19 C617.16,611.05 607.06,619.20 601.26,621.19 C601.15,621.22 600.98,621.26 600.76,621.30 C608.39,618.46 617.79,610.08 621.83,602.50 C622.85,600.58 623.49,599.17 623.88,597.49 C623.82,597.90 623.75,598.24 623.68,598.50 C622.41,603.15 624.50,600.21 626.27,594.86 ZM 199.55 830.09 C199.24,829.57 197.69,828.87 196.12,828.53 C191.91,827.60 182.79,819.44 180.62,814.65 C179.59,812.37 178.35,809.72 177.87,808.76 C177.39,807.81 177.00,803.53 177.00,799.26 C177.00,791.38 179.47,782.39 182.58,778.92 C183.36,778.05 184.01,776.93 184.03,776.42 C184.05,775.91 185.96,774.13 188.28,772.45 C192.31,769.54 193.95,768.68 200.30,766.12 C202.33,765.31 245.49,765.00 357.51,765.00 C370.14,765.00 381.78,765.00 392.51,764.99 C508.02,764.96 517.65,764.96 523.39,769.68 C524.45,770.55 525.37,771.58 526.80,772.80 C533.18,778.25 535.85,783.10 537.65,792.50 C538.83,798.62 538.80,800.19 537.40,804.97 C533.97,816.80 529.05,822.99 519.42,827.64 L 513.50 830.50 L 356.81 830.76 C260.72,830.92 199.91,830.66 199.55,830.09 ZM 201.07 342.38 C206.58,341.03 216.82,341.00 285.83,341.00 C286.56,341.00 287.28,341.00 288.00,341.00 C224.98,341.36 207.65,341.51 201.07,342.38 ZM 196.46 269.11 C201.77,271.17 211.65,271.52 250.08,271.78 L 201.50 271.50 ZM 352.00 199.22 C224.03,199.49 203.30,199.48 197.01,201.88 C197.37,201.73 197.73,201.58 198.09,201.46 C203.35,199.55 207.55,199.49 352.00,199.20 C428.97,199.05 475.15,199.10 504.67,199.62 C475.16,199.11 428.98,199.06 352.00,199.22 ZM 561.56 458.60 C559.22,467.59 553.69,474.13 544.44,479.05 C551.37,475.17 558.34,467.37 560.93,460.46 C561.16,459.85 561.36,459.23 561.56,458.60 ZM 741.05 306.55 C738.24,303.37 735.62,300.68 733.30,298.63 C730.89,296.50 729.17,294.50 729.48,294.18 C729.70,293.97 728.86,292.82 727.52,291.28 C731.46,295.38 735.24,299.58 738.82,303.87 C739.57,304.76 740.31,305.66 741.05,306.55 ZM 814.46 551.95 C816.06,534.58 816.34,500.37 814.91,482.38 C816.48,501.58 816.36,536.70 814.53,551.46 C814.51,551.62 814.48,551.79 814.46,551.95 ZM 767.73 667.18 L 767.73 667.17 C767.61,666.77 769.15,664.79 771.18,662.76 C776.69,657.24 787.49,640.30 793.61,627.57 C794.07,626.61 794.53,625.64 794.99,624.64 C791.52,632.36 787.68,639.52 783.52,646.00 C778.21,654.29 773.02,661.29 767.73,667.18 ZM 718.66 282.50 C717.56,281.58 716.72,281.00 716.40,281.00 C715.76,281.00 713.58,278.98 711.55,276.50 C711.00,275.82 710.44,275.17 709.91,274.59 C712.90,277.18 715.81,279.82 718.66,282.50 ZM 812.35 462.18 C806.77,426.98 796.06,394.69 779.82,364.00 C777.91,360.40 775.85,356.72 773.69,353.02 C793.52,386.86 806.09,422.51 812.35,462.18 ZM 175.50 237.38 C175.53,245.27 175.90,247.25 177.89,251.00 C181.65,258.06 184.91,261.83 190.41,265.48 C191.75,266.37 192.78,267.13 193.82,267.77 C187.03,264.02 181.30,258.31 178.31,252.21 C175.88,247.28 175.52,245.55 175.50,237.38 ZM 623.19 576.32 C622.80,575.35 622.30,574.34 621.66,573.12 C618.46,567.04 613.45,561.64 608.11,558.35 C613.75,561.75 618.95,567.20 621.66,572.80 C622.31,574.12 622.80,575.24 623.19,576.32 ZM 177.54 672.32 C177.77,672.80 178.04,673.32 178.33,673.88 C181.69,680.26 187.09,685.94 193.27,689.63 C186.71,685.79 181.98,680.90 178.67,674.56 C178.24,673.73 177.86,672.99 177.54,672.32 ZM 706.84 271.98 C706.23,271.81 704.72,270.70 703.30,269.38 C700.51,266.78 694.87,262.36 688.45,257.72 C694.82,262.26 700.96,267.02 706.84,271.98 ZM 206.35 832.00 C221.27,832.92 253.35,832.87 328.70,832.75 L 328.71 832.75 C338.12,832.74 348.20,832.72 359.00,832.71 L 515.50 832.50 L 359.00 832.72 C346.85,832.73 335.61,832.75 325.21,832.77 C252.66,832.89 221.21,832.94 206.35,832.00 ZM 185.16 210.49 C182.78,213.26 180.22,216.89 178.69,219.98 C177.38,222.65 176.60,224.38 176.14,226.31 C176.57,224.40 177.26,222.68 178.40,220.22 C179.96,216.84 182.35,213.46 185.16,210.49 ZM 188.68 348.40 C181.45,354.18 176.85,362.46 175.43,371.36 C176.83,361.95 181.56,353.85 188.68,348.40 ZM 186.15 492.61 C182.91,495.78 180.02,499.61 178.00,503.59 C177.01,505.53 176.40,507.00 176.04,508.83 C176.36,507.04 176.85,505.60 177.60,504.00 C179.38,500.19 182.55,496.06 186.15,492.61 ZM 586.73 209.32 C576.89,206.79 565.46,204.20 558.17,202.95 C567.73,204.59 577.27,206.72 586.73,209.32 ZM 640.43 229.42 C637.37,228.01 634.97,227.00 634.51,227.00 C633.77,227.00 633.02,226.62 632.83,226.16 C632.74,225.92 630.95,225.06 628.21,223.87 C632.32,225.64 636.40,227.49 640.43,229.42 ZM 181.88 399.00 C185.80,404.43 192.00,409.15 198.50,411.61 C199.77,412.09 201.16,412.45 205.48,412.73 C201.20,412.46 199.74,412.11 198.50,411.65 C191.65,409.12 185.95,404.67 181.88,399.00 ZM 185.11 823.49 C177.85,816.77 174.54,807.56 175.21,795.97 C174.55,807.30 177.96,816.70 185.11,823.49 ZM 374.44 272.94 L 379.12 275.14 C395.96,283.03 404.18,301.88 397.98,318.37 C404.00,302.26 396.26,283.69 380.23,275.79 ZM 560.65 435.78 C560.58,435.62 560.51,435.46 560.43,435.30 C560.54,435.54 560.65,435.77 560.76,436.00 C562.35,439.58 562.90,441.49 562.93,445.32 C562.66,441.88 561.90,438.58 560.65,435.78 ZM 584.93 621.97 C568.27,622.30 536.97,622.53 482.19,622.73 C534.76,622.53 567.51,622.29 584.93,621.97 ZM 750.15 682.53 C750.37,682.35 750.57,682.18 750.75,682.02 C751.76,681.08 753.10,680.12 753.73,679.90 C753.95,679.82 754.33,679.59 754.81,679.24 C753.28,680.41 751.73,681.50 750.15,682.53 ZM 729.89 691.71 C734.40,690.34 739.57,688.27 743.72,686.25 C739.36,688.49 734.77,690.29 729.89,691.71 ZM 811.15 572.57 C811.27,571.87 811.39,571.18 811.51,570.50 C811.73,569.15 812.39,565.46 813.09,561.61 C812.51,565.31 811.86,568.96 811.15,572.57 ZM 660.05 239.63 C658.53,238.97 657.24,238.25 657.00,237.93 C658.02,238.49 659.04,239.06 660.05,239.63 ZM 190.03 827.38 C190.84,827.97 191.50,828.50 192.20,828.97 C192.96,829.48 193.77,829.92 194.84,830.31 C193.61,829.88 192.72,829.38 191.89,828.80 C191.28,828.37 190.70,827.90 190.03,827.38 ZM 176.85 389.05 C177.86,392.10 179.29,395.08 181.14,397.92 C181.24,398.07 181.33,398.21 181.43,398.35 C179.49,395.51 177.94,392.38 176.85,389.05 ZM 175.52 661.40 C175.55,664.19 175.66,666.09 175.94,667.69 C175.65,666.08 175.55,664.19 175.52,661.40 ZM 814.57 478.69 C814.56,478.62 814.56,478.54 814.55,478.47 C814.45,477.57 814.34,476.66 814.24,475.76 C814.32,476.46 814.40,477.15 814.48,477.85 C814.51,478.12 814.54,478.40 814.57,478.69 Z" fill="rgb(250,108,60)"/>
<path d="M 1.00 513.00 C1.00,231.95 1.00,1.77 1.00,1.49 C1.00,1.21 231.18,0.87 512.50,0.74 L 1024.00 0.50 L 1024.00 512.25 L 1024.00 1024.00 L 512.50 1024.00 L 1.00 1024.00 L 1.00 513.00 ZM 520.50 829.84 C531.95,823.74 538.17,815.16 540.10,802.80 C541.30,795.05 539.46,785.28 535.66,779.25 C532.90,774.88 526.35,768.73 522.31,766.71 C514.69,762.91 514.89,762.92 356.00,763.21 L 201.50 763.50 L 195.38 766.33 C183.41,771.86 175.97,782.79 175.21,795.97 C174.44,809.27 178.92,819.43 188.59,826.30 C198.69,833.47 184.95,832.96 359.00,832.72 L 515.50 832.50 L 520.50 829.84 ZM 727.32 692.42 C749.94,686.56 766.03,673.26 783.52,646.00 C798.98,621.91 809.93,588.52 814.53,551.46 C816.51,535.44 816.49,495.47 814.48,477.85 C806.93,411.65 783.08,356.79 738.82,303.87 C696.48,253.23 627.79,214.86 558.17,202.95 C537.56,199.43 508.05,198.89 352.00,199.20 C207.55,199.49 203.35,199.55 198.09,201.46 C190.48,204.20 182.11,212.18 178.40,220.22 C175.81,225.82 175.50,227.57 175.50,236.50 C175.50,245.43 175.80,247.11 178.31,252.21 C181.61,258.95 188.27,265.22 196.00,268.89 L 201.50 271.50 L 287.52 272.00 L 373.54 272.50 L 380.23 275.79 C396.29,283.70 404.03,302.34 397.94,318.47 C393.83,329.38 383.70,337.78 372.01,340.00 C368.76,340.62 335.65,341.00 285.83,341.00 C206.42,341.00 204.82,341.04 198.72,343.09 C184.23,347.96 175.00,361.27 175.00,377.28 C175.00,392.83 184.27,406.39 198.50,411.65 C203.27,413.41 211.23,413.52 370.50,414.00 L 537.50 414.50 L 543.20 417.30 C550.06,420.67 557.37,428.41 560.65,435.78 C563.74,442.72 563.85,452.65 560.93,460.46 C558.19,467.78 550.52,476.11 543.19,479.71 L 537.50 482.50 L 369.00 483.00 L 200.50 483.50 L 194.80 486.30 C188.27,489.50 180.75,497.25 177.60,504.00 C175.91,507.63 175.50,510.44 175.50,518.50 C175.50,530.55 177.36,535.45 184.69,542.78 C190.74,548.82 197.16,551.96 205.77,553.07 C209.47,553.54 299.22,553.95 405.21,553.97 L 597.92 554.00 L 603.65 556.14 C610.54,558.72 617.58,565.36 621.66,573.12 C624.19,577.93 624.49,579.51 624.49,588.00 C624.49,596.37 624.17,598.09 621.83,602.50 C617.77,610.13 608.28,618.56 600.62,621.35 C598.35,622.18 543.63,622.62 399.00,622.99 L 200.50 623.50 L 194.99 626.09 C188.12,629.31 181.82,635.64 178.25,642.91 C175.81,647.88 175.50,649.62 175.50,658.50 C175.50,667.78 175.73,668.93 178.67,674.56 C182.30,681.51 187.64,686.72 195.21,690.71 L 200.50 693.50 L 238.50 694.00 C259.40,694.28 376.55,694.39 498.83,694.26 C698.72,694.04 721.78,693.85 727.32,692.42 Z" fill="rgb(254,254,254)"/>
</g>
</svg>